name C:/MyDriveSym/Projects/mobilecap/Data\Session20210910_0002\mocap\ForceDataProcessed\walkingTS3_forces.mot
datacolumns 19
datarows 24
range 0.39950000 0.41100000
endheader 
time	R_ground_force_vx	R_ground_force_vy	R_ground_force_vz	R_ground_force_px	R_ground_force_py	R_ground_force_pz	R_ground_torque_x	R_ground_torque_y	R_ground_torque_z	L_ground_force_vx	L_ground_force_vy	L_ground_force_vz	L_ground_force_px	L_ground_force_py	L_ground_force_pz	L_ground_torque_x	L_ground_torque_y	L_ground_torque_z	
          0.39950000	          2.77753200	        793.17229600	        -40.68493900	          0.21649300	          0.00600000	         -0.20021400	          0.00000000	         -2.35756900	          0.00000000	          0.00000000	          0.00000000	          0.00000000	          0.62514100	          0.00000000	         -0.37134300	          0.00000000	          0.00000000	          0.00000000	
          0.40000000	          2.94675600	        793.61568400	        -40.77701200	          0.21664500	          0.00600000	         -0.20020500	          0.00000000	         -2.36174100	          0.00000000	          0.00000000	          0.00000000	          0.00000000	          0.62514100	          0.00000000	         -0.37134300	          0.00000000	          0.00000000	          0.00000000	
          0.40050000	          3.11622400	        794.06171300	        -40.86992100	          0.21679800	          0.00600000	         -0.20019600	          0.00000000	         -2.36592400	          0.00000000	          0.00000000	          0.00000000	          0.00000000	          0.62514100	          0.00000000	         -0.37134300	          0.00000000	          0.00000000	          0.00000000	
          0.40100000	          3.28594300	        794.51036400	        -40.96366600	          0.21695100	          0.00600000	         -0.20018600	          0.00000000	         -2.37011900	          0.00000000	          0.00000000	          0.00000000	          0.00000000	          0.62514100	          0.00000000	         -0.37134300	          0.00000000	          0.00000000	          0.00000000	
          0.40150000	          3.45591700	        794.96161600	        -41.05824400	          0.21710400	          0.00600000	         -0.20017600	          0.00000000	         -2.37432600	          0.00000000	          0.00000000	          0.00000000	          0.00000000	          0.62514100	          0.00000000	         -0.37134300	          0.00000000	          0.00000000	          0.00000000	
          0.40200000	          3.62615100	        795.41544900	        -41.15365500	          0.21725700	          0.00600000	         -0.20016700	          0.00000000	         -2.37854500	          0.00000000	          0.00000000	          0.00000000	          0.00000000	          0.62514100	          0.00000000	         -0.37134300	          0.00000000	          0.00000000	          0.00000000	
          0.40250000	          3.79665100	        795.87184200	        -41.24989600	          0.21741000	          0.00600000	         -0.20015700	          0.00000000	         -2.38277700	          0.00000000	          0.00000000	          0.00000000	          0.00000000	          0.62514100	          0.00000000	         -0.37134300	          0.00000000	          0.00000000	          0.00000000	
          0.40300000	          3.96742200	        796.33077700	        -41.34696400	          0.21756300	          0.00600000	         -0.20014700	          0.00000000	         -2.38702200	          0.00000000	          0.00000000	          0.00000000	          0.00000000	          0.62514100	          0.00000000	         -0.37134300	          0.00000000	          0.00000000	          0.00000000	
          0.40350000	          4.13846700	        796.79223200	        -41.44486000	          0.21771600	          0.00600000	         -0.20013700	          0.00000000	         -2.39128000	          0.00000000	          0.00000000	          0.00000000	          0.00000000	          0.62514100	          0.00000000	         -0.37134300	          0.00000000	          0.00000000	          0.00000000	
          0.40400000	          4.30979300	        797.25618700	        -41.54357900	          0.21786900	          0.00600000	         -0.20012700	          0.00000000	         -2.39555200	          0.00000000	          0.00000000	          0.00000000	          0.00000000	          0.62514100	          0.00000000	         -0.37134300	          0.00000000	          0.00000000	          0.00000000	
          0.40450000	          4.48140300	        797.72262100	        -41.64312000	          0.21802200	          0.00600000	         -0.20011700	          0.00000000	         -2.39983800	          0.00000000	          0.00000000	          0.00000000	          0.00000000	          0.62514100	          0.00000000	         -0.37134300	          0.00000000	          0.00000000	          0.00000000	
          0.40500000	          4.65330300	        798.19151400	        -41.74348200	          0.21817500	          0.00600000	         -0.20010600	          0.00000000	         -2.40413800	          0.00000000	          0.00000000	          0.00000000	          0.00000000	          0.62514100	          0.00000000	         -0.37134300	          0.00000000	          0.00000000	          0.00000000	
          0.40550000	          4.82549600	        798.66284400	        -41.84466000	          0.21832800	          0.00600000	         -0.20009600	          0.00000000	         -2.40845200	          0.00000000	          0.00000000	          0.00000000	          0.00000000	          0.62514100	          0.00000000	         -0.37134300	          0.00000000	          0.00000000	          0.00000000	
          0.40600000	          4.99798800	        799.13659200	        -41.94665500	          0.21848200	          0.00600000	         -0.20008500	          0.00000000	         -2.41278000	          0.00000000	          0.00000000	          0.00000000	          0.00000000	          0.62514100	          0.00000000	         -0.37134300	          0.00000000	          0.00000000	          0.00000000	
          0.40650000	          5.17078400	        799.61273700	        -42.04946200	          0.21863500	          0.00600000	         -0.20007500	          0.00000000	         -2.41712400	          0.00000000	          0.00000000	          0.00000000	          0.00000000	          0.62514100	          0.00000000	         -0.37134300	          0.00000000	          0.00000000	          0.00000000	
          0.40700000	          5.34388600	        800.09125700	        -42.15308000	          0.21878800	          0.00600000	         -0.20006400	          0.00000000	         -2.42148300	          0.00000000	          0.00000000	          0.00000000	          0.00000000	          0.62514100	          0.00000000	         -0.37134300	          0.00000000	          0.00000000	          0.00000000	
          0.40750000	          5.51730100	        800.57213100	        -42.25750500	          0.21894200	          0.00600000	         -0.20005300	          0.00000000	         -2.42585700	          0.00000000	          0.00000000	          0.00000000	          0.00000000	          0.62514100	          0.00000000	         -0.37134300	          0.00000000	          0.00000000	          0.00000000	
          0.40800000	          5.69103200	        801.05533800	        -42.36273600	          0.21909600	          0.00600000	         -0.20004300	          0.00000000	         -2.43024700	          0.00000000	          0.00000000	          0.00000000	          0.00000000	          0.62514100	          0.00000000	         -0.37134300	          0.00000000	          0.00000000	          0.00000000	
          0.40850000	          5.86508300	        801.54085800	        -42.46877000	          0.21924900	          0.00600000	         -0.20003200	          0.00000000	         -2.43465300	          0.00000000	          0.00000000	          0.00000000	          0.00000000	          0.62514100	          0.00000000	         -0.37134300	          0.00000000	          0.00000000	          0.00000000	
          0.40900000	          6.03945900	        802.02866800	        -42.57560300	          0.21940300	          0.00600000	         -0.20002100	          0.00000000	         -2.43907600	          0.00000000	          0.00000000	          0.00000000	          0.00000000	          0.62514100	          0.00000000	         -0.37134300	          0.00000000	          0.00000000	          0.00000000	
          0.40950000	          6.21416400	        802.51874800	        -42.68323300	          0.21955600	          0.00600000	         -0.20000900	          0.00000000	         -2.44351500	          0.00000000	          0.00000000	          0.00000000	          0.00000000	          0.62514100	          0.00000000	         -0.37134300	          0.00000000	          0.00000000	          0.00000000	
          0.41000000	          6.38920200	        803.01107500	        -42.79165700	          0.21971000	          0.00600000	         -0.19999800	          0.00000000	         -2.44797000	          0.00000000	          0.00000000	          0.00000000	          0.00000000	          0.62514100	          0.00000000	         -0.37134300	          0.00000000	          0.00000000	          0.00000000	
          0.41050000	          6.56457700	        803.50562800	        -42.90087300	          0.21986400	          0.00600000	         -0.19998700	          0.00000000	         -2.45244300	          0.00000000	          0.00000000	          0.00000000	          0.00000000	          0.62514100	          0.00000000	         -0.37134300	          0.00000000	          0.00000000	          0.00000000	
          0.41100000	          6.74029300	        804.00238600	        -43.01087600	          0.22001800	          0.00600000	         -0.19997500	          0.00000000	         -2.45693200	          0.00000000	          0.00000000	          0.00000000	          0.00000000	          0.62514100	          0.00000000	         -0.37134300	          0.00000000	          0.00000000	          0.00000000	
